<svg width="65" height="65" viewBox="0 0 65 65" fill="none" xmlns="http://www.w3.org/2000/svg">
<path d="M32.5 0C26.0721 0 19.7886 1.90609 14.444 5.47724C9.09938 9.04838 4.93378 14.1242 2.47393 20.0628C0.0140817 26.0014 -0.629527 32.5361 0.624493 38.8404C1.87851 45.1448 4.97384 50.9358 9.51904 55.481C14.0642 60.0262 19.8552 63.1215 26.1596 64.3755C32.464 65.6295 38.9986 64.9859 44.9372 62.5261C50.8758 60.0662 55.9516 55.9006 59.5228 50.556C63.0939 45.2114 65 38.9279 65 32.5C64.9893 23.8838 61.5617 15.6235 55.4691 9.5309C49.3765 3.4383 41.1162 0.0107501 32.5 0ZM45 35H35V45C35 45.663 34.7366 46.2989 34.2678 46.7678C33.7989 47.2366 33.1631 47.5 32.5 47.5C31.837 47.5 31.2011 47.2366 30.7322 46.7678C30.2634 46.2989 30 45.663 30 45V35H20C19.337 35 18.7011 34.7366 18.2322 34.2678C17.7634 33.7989 17.5 33.163 17.5 32.5C17.5 31.837 17.7634 31.2011 18.2322 30.7322C18.7011 30.2634 19.337 30 20 30H30V20C30 19.337 30.2634 18.7011 30.7322 18.2322C31.2011 17.7634 31.837 17.5 32.5 17.5C33.1631 17.5 33.7989 17.7634 34.2678 18.2322C34.7366 18.7011 35 19.337 35 20V30H45C45.663 30 46.2989 30.2634 46.7678 30.7322C47.2366 31.2011 47.5 31.837 47.5 32.5C47.5 33.163 47.2366 33.7989 46.7678 34.2678C46.2989 34.7366 45.663 35 45 35Z" fill="#D32F2F"/>
<path d="M32.5 0C26.0721 0 19.7886 1.90609 14.444 5.47724C9.09938 9.04838 4.93378 14.1242 2.47393 20.0628C0.0140817 26.0014 -0.629527 32.5361 0.624493 38.8404C1.87851 45.1448 4.97384 50.9358 9.51904 55.481C14.0642 60.0262 19.8552 63.1215 26.1596 64.3755C32.464 65.6295 38.9986 64.9859 44.9372 62.5261C50.8758 60.0662 55.9516 55.9006 59.5228 50.556C63.0939 45.2114 65 38.9279 65 32.5C64.9893 23.8838 61.5617 15.6235 55.4691 9.5309C49.3765 3.4383 41.1162 0.0107501 32.5 0ZM45 35H35V45C35 45.663 34.7366 46.2989 34.2678 46.7678C33.7989 47.2366 33.1631 47.5 32.5 47.5C31.837 47.5 31.2011 47.2366 30.7322 46.7678C30.2634 46.2989 30 45.663 30 45V35H20C19.337 35 18.7011 34.7366 18.2322 34.2678C17.7634 33.7989 17.5 33.163 17.5 32.5C17.5 31.837 17.7634 31.2011 18.2322 30.7322C18.7011 30.2634 19.337 30 20 30H30V20C30 19.337 30.2634 18.7011 30.7322 18.2322C31.2011 17.7634 31.837 17.5 32.5 17.5C33.1631 17.5 33.7989 17.7634 34.2678 18.2322C34.7366 18.7011 35 19.337 35 20V30H45C45.663 30 46.2989 30.2634 46.7678 30.7322C47.2366 31.2011 47.5 31.837 47.5 32.5C47.5 33.163 47.2366 33.7989 46.7678 34.2678C46.2989 34.7366 45.663 35 45 35Z" fill="black" fill-opacity="0.2"/>
</svg>
