<svg width="32" height="32" viewBox="0 0 32 32" fill="none" xmlns="http://www.w3.org/2000/svg">
<path d="M26.6667 14.6664C26.3406 12.3201 25.2521 10.146 23.5689 8.4791C21.8856 6.81221 19.701 5.745 17.3516 5.44184C15.0021 5.13869 12.6182 5.61641 10.5669 6.80143C8.51572 7.98645 6.91101 9.81302 6.00001 11.9998M5.33334 6.66644V11.9998H10.6667" stroke="#C7352D" stroke-width="2" stroke-linecap="round" stroke-linejoin="round"/>
<path d="M5.33334 17.3335C5.65942 19.6799 6.74792 21.854 8.43116 23.5208C10.1144 25.1877 12.299 26.2549 14.6484 26.5581C16.9979 26.8612 19.3818 26.3835 21.4331 25.1985C23.4843 24.0135 25.089 22.1869 26 20.0002M26.6667 25.3335V20.0002H21.3333" stroke="#C7352D" stroke-width="2" stroke-linecap="round" stroke-linejoin="round"/>
</svg>
